<?xml version="1.0" standalone="no"?>
<!DOCTYPE svg PUBLIC "-//W3C//DTD SVG 20010904//EN"
 "http://www.w3.org/TR/2001/REC-SVG-20010904/DTD/svg10.dtd">
<svg version="1.0" xmlns="http://www.w3.org/2000/svg"
 width="70.000000pt" height="85.000000pt" viewBox="0 0 70.000000 85.000000"
 preserveAspectRatio="xMidYMid meet">

<g transform="translate(0.000000,85.000000) scale(0.100000,-0.100000)"
fill="#000000" stroke="none">
<path d="M102 639 l-102 -211 0 -214 0 -214 253 0 252 0 98 208 97 207 0 218
0 217 -248 0 -249 0 -101 -211z m98 -414 c0 -78 2 -85 20 -85 26 0 26 -20 -1
-27 -17 -5 -20 -11 -15 -34 5 -27 3 -29 -28 -29 -31 0 -32 2 -28 30 4 30 4 30
-47 30 -28 0 -51 4 -51 9 0 5 25 50 56 100 39 63 62 91 75 91 17 0 19 -8 19
-85z m172 63 c-15 -10 -42 -18 -59 -18 -30 0 -33 -3 -33 -30 0 -27 2 -30 19
-20 86 46 160 -62 95 -139 -21 -25 -33 -31 -66 -31 -49 0 -78 15 -78 40 0 28
28 25 42 -5 14 -30 53 -34 68 -6 15 30 12 92 -7 113 -20 22 -41 23 -65 1 -17
-15 -18 -13 -18 48 l0 64 64 0 64 0 -26 -17z m111 3 c5 -22 -18 -81 -32 -81
-7 0 -7 8 -1 25 6 16 6 25 0 25 -6 0 -10 11 -10 25 0 30 35 35 43 6z"/>
<path d="M112 206 c-17 -30 -32 -57 -32 -60 0 -3 16 -6 35 -6 l35 0 0 60 c0
33 -1 60 -3 60 -1 0 -17 -24 -35 -54z"/>
</g>
</svg>
