<?xml version="1.0" standalone="no"?>
<!DOCTYPE svg PUBLIC "-//W3C//DTD SVG 20010904//EN"
 "http://www.w3.org/TR/2001/REC-SVG-20010904/DTD/svg10.dtd">
<svg version="1.0" xmlns="http://www.w3.org/2000/svg"
 width="70.000000pt" height="85.000000pt" viewBox="0 0 70.000000 85.000000"
 preserveAspectRatio="xMidYMid meet">

<g transform="translate(0.000000,85.000000) scale(0.100000,-0.100000)"
fill="#000000" stroke="none">
<path d="M102 639 l-102 -211 0 -214 0 -214 253 0 252 0 98 206 97 207 0 218
0 219 -248 0 -249 0 -101 -211z m98 -414 c0 -78 2 -85 20 -85 26 0 26 -20 -1
-27 -17 -5 -20 -11 -15 -34 5 -27 3 -29 -28 -29 -31 0 -32 2 -28 30 4 30 4 30
-47 30 -28 0 -51 4 -51 9 0 5 25 50 56 100 39 63 62 91 75 91 17 0 19 -8 19
-85z m178 67 c-11 -8 -37 -16 -59 -19 -35 -5 -39 -8 -39 -35 0 -25 2 -27 19
-18 33 17 71 11 98 -16 21 -21 25 -32 20 -66 -7 -56 -40 -88 -89 -88 -49 0
-78 15 -78 40 0 28 28 25 42 -5 14 -30 53 -34 68 -6 15 30 12 92 -7 113 -20
22 -41 23 -65 1 -17 -15 -18 -13 -18 48 l0 64 64 0 c57 0 62 -1 44 -13z m102
-13 c0 -33 -15 -69 -30 -69 -6 0 -6 9 0 25 6 16 6 25 0 25 -6 0 -10 11 -10 25
0 18 5 25 20 25 16 0 20 -7 20 -31z"/>
<path d="M112 206 c-17 -30 -32 -57 -32 -60 0 -3 16 -6 35 -6 l35 0 0 60 c0
33 -1 60 -3 60 -1 0 -17 -24 -35 -54z"/>
</g>
</svg>
